<svg viewBox="0 0 923 1006" fill="none" xmlns="http://www.w3.org/2000/svg">
	<path fill-rule="evenodd" clip-rule="evenodd" d="M473.044 1.81092C471.091 3.76392 471.079 6.51688 471.592 345.061C471.886 538.635 472.51 691.8 473.035 698.955C473.544 705.893 474.422 712.785 474.987 714.27C475.552 715.756 476.014 718.008 476.014 719.276C476.014 727.153 487.791 753.367 496.741 765.411C508.931 781.813 531.64 798.215 549.756 803.701C561.443 807.24 578.617 809.113 594.014 808.528C625.079 807.348 635.9 803.186 711.014 763.536C716.239 760.778 739.639 748.93 763.014 737.209C786.389 725.487 810.464 713.154 816.514 709.803C822.564 706.452 838.539 698.051 852.014 691.135C865.489 684.219 880.339 676.512 885.014 674.008C889.689 671.504 899.364 666.469 906.514 662.819C915.173 658.399 919.926 655.374 920.749 653.762C921.718 651.863 921.988 605.639 921.999 439.556C922.013 241.089 921.906 227.606 920.297 225.151C919.183 223.451 914.355 220.497 906.547 216.739C899.929 213.553 888.706 207.773 881.608 203.894C874.51 200.015 868.589 196.841 868.45 196.841C866.367 196.841 789.979 158.414 773.377 149.014C768.352 146.169 763.692 143.841 763.021 143.841C762.351 143.841 760.466 142.716 758.832 141.341C755.263 138.338 754.817 138.296 752.591 140.756C750.965 142.553 750.868 150.003 751.031 261.006C751.126 326.09 751.359 401.616 751.548 428.841C751.737 456.066 751.964 493.114 752.053 511.17L752.214 543.999L749.903 546.459C748.632 547.812 738.124 553.622 726.553 559.371C714.982 565.12 701.239 572.103 696.014 574.889C680.713 583.047 653.982 596.54 647.865 599.192C643.754 600.975 641.915 601.342 641.115 600.542C640.32 599.747 640.014 528.056 640.014 342.315V85.1899L637.764 83.1079C636.527 81.9629 628.314 77.4569 619.514 73.0939C610.714 68.7309 585.064 55.7849 562.514 44.3239C513.245 19.2839 510.329 17.8409 509.008 17.8409C508.439 17.8409 506.242 16.7479 504.126 15.4119C502.009 14.0749 496.056 10.9239 490.896 8.40693C485.736 5.89093 480.389 2.94393 479.014 1.85893C475.887 -0.610073 475.468 -0.613077 473.044 1.81092ZM433.514 6.67793C426.914 9.88393 417.914 14.5409 413.514 17.0279C409.114 19.5139 394.939 26.9389 382.014 33.5269C369.089 40.1159 357.614 46.0199 356.514 46.6489C355.414 47.2769 347.764 51.1159 339.514 55.1779C331.264 59.2409 319.91 64.8769 314.284 67.7029C308.657 70.5289 303.849 72.8409 303.6 72.8409C303.351 72.8409 296.03 76.7269 287.331 81.4759C278.632 86.2249 257.789 96.8129 241.014 105.005C224.239 113.197 206.464 121.995 201.514 124.558C196.564 127.12 181.264 134.918 167.514 141.885C153.764 148.853 135.989 157.892 128.014 161.972C120.039 166.052 108.789 171.663 103.014 174.442C97.239 177.22 77.761 186.954 59.73 196.072C41.699 205.19 22.349 214.561 16.73 216.897C11.111 219.233 5.04802 222.517 3.25702 224.195L0 227.247L0.257019 500.431L0.514008 773.616L3.01401 775.687C4.38901 776.826 20.364 785.202 38.514 794.302C56.664 803.401 73.089 811.729 75.014 812.808C76.939 813.887 83.014 816.966 88.514 819.65C94.014 822.334 104.364 827.579 111.514 831.304C118.664 835.03 138.689 845.288 156.014 854.1C200.483 876.718 208.521 880.913 217.014 885.932C221.139 888.371 227.889 892 232.014 893.998C257.865 906.517 281.612 918.419 288.514 922.315C292.914 924.799 308.664 932.953 323.514 940.434C338.364 947.915 351.009 954.441 351.614 954.936C352.219 955.431 366.394 962.756 383.114 971.213C399.834 979.67 417.789 988.942 423.014 991.816C428.239 994.691 434.856 998.331 437.719 999.906C440.582 1001.48 443.872 1003.35 445.03 1004.05C450.278 1007.26 450.011 1021.75 449.709 750.27C449.474 538.431 449.214 498.787 448.05 497.384C447.291 496.47 445.06 494.904 443.092 493.905C441.124 492.905 409.589 477.014 373.014 458.59C285.982 414.749 245.777 394.283 239.014 390.379C235.989 388.633 231.985 386.673 230.116 386.023C223.252 383.637 223.659 376.988 224.313 480.856C224.636 532.296 225.191 575.139 225.545 576.061C226.136 577.6 244.217 586.983 268.211 598.201C275.598 601.655 278.274 603.442 279.445 605.708C280.774 608.278 280.99 616.353 281.03 665.097C281.056 696.125 280.79 722.261 280.439 723.177C280.087 724.092 279.403 724.841 278.919 724.841C277.777 724.841 260.824 717.861 259.514 716.851C258.674 716.204 214.806 693.823 180.014 676.291C174.789 673.658 169.611 670.704 168.508 669.727C166.513 667.961 166.502 666.933 166.594 499.904C166.683 340.119 166.776 331.762 168.472 329.888C169.453 328.803 171.889 327.384 173.885 326.733C175.881 326.082 187.639 320.359 200.014 314.015C243.203 291.873 273.527 276.892 275.205 276.866C276.135 276.852 277.174 276.391 277.514 275.841C278.565 274.141 279.53 274.721 280.669 277.738C281.41 279.702 281.614 290.24 281.302 310.488C280.846 340.118 280.859 340.358 283.028 342.656C284.969 344.713 285.397 344.808 286.863 343.506C287.771 342.7 293.014 339.81 298.514 337.083C304.014 334.356 312.114 330.205 316.514 327.858C320.914 325.512 326.967 322.741 329.964 321.702C332.962 320.662 335.768 319.255 336.199 318.576C336.63 317.897 336.99 288.253 336.999 252.702C337.013 192.575 336.892 187.92 335.264 186.014C333.527 183.98 333.186 184.129 288.014 206.716C262.989 219.228 233.737 233.938 223.01 239.404C212.283 244.869 193.383 254.284 181.01 260.326C168.637 266.367 155.589 272.899 152.014 274.842C148.439 276.784 141.014 280.337 135.514 282.737C130.014 285.137 123.493 288.168 121.022 289.471C118.551 290.775 115.811 291.841 114.932 291.841C110.94 291.841 110.945 291.563 111.235 501.055C111.481 678.817 111.692 702.938 113.014 704.187C113.839 704.966 117.439 706.887 121.014 708.456C124.589 710.025 131.564 713.517 136.514 716.216C141.464 718.915 159.689 728.204 177.014 736.858C194.339 745.512 210.989 754.061 214.014 755.856C217.039 757.651 241.114 770.016 267.514 783.333C317.853 808.725 325.825 812.877 330.168 815.958C331.628 816.994 333.208 817.841 333.678 817.841C336.934 817.841 337.012 814.949 336.951 696.945C336.917 632.636 337.2 578.368 337.578 576.35C338.586 570.979 336.692 568.224 330.611 566.219C325.469 564.524 318.782 561.355 300.559 551.982C295.084 549.165 289.195 546.396 287.472 545.827C285.75 545.259 283.367 543.887 282.177 542.778C280.048 540.795 280.014 540.263 280.014 509.41V478.058L282.586 477.412C284.304 476.981 286.213 477.415 288.336 478.718C293.817 482.082 320.406 495.841 321.427 495.841C321.616 495.841 325.538 497.938 330.142 500.5C345.708 509.163 387.28 529.841 389.13 529.841C390.141 529.841 391.651 530.883 392.485 532.157C393.828 534.206 394.012 556.149 394.08 722.286C394.127 836.908 393.794 910.461 393.226 911.029C392.169 912.086 381.651 907.662 370.014 901.266C365.889 898.999 358.205 894.878 352.938 892.11C347.671 889.341 342.496 886.596 341.438 886.01C340.38 885.424 333.664 882.077 326.514 878.572C314.353 872.611 306.833 868.685 284.514 856.642C279.564 853.972 270.114 849.047 263.514 845.698C256.914 842.349 242.739 835.094 232.014 829.575C221.289 824.056 204.864 815.63 195.514 810.85C186.164 806.071 175.139 800.345 171.014 798.125C150.32 786.988 68.908 745.841 67.567 745.841C66.14 745.841 55.065 738.415 54.57 737.126C54.237 736.259 53.981 629.308 54.002 499.456L54.038 263.362L56.276 261.247C57.507 260.084 61.439 258.093 65.014 256.824C68.589 255.554 71.964 254.184 72.514 253.78C73.82 252.82 128.007 225.534 139.014 220.295C143.689 218.069 157.189 211.306 169.014 205.264C180.839 199.223 192.989 193.151 196.014 191.771C199.039 190.391 209.389 185.165 219.014 180.159C228.639 175.152 252.489 163.103 272.014 153.383C291.539 143.663 308.305 135.284 309.271 134.763C312.685 132.921 345.74 115.98 363.014 107.218C388.711 94.1829 392.215 92.6419 393.415 93.8419C394.116 94.5429 394.349 125.149 394.138 189.119L393.827 283.362L395.971 285.302C398.01 287.148 398.248 287.16 400.815 285.548C402.299 284.615 413.496 278.9 425.697 272.847C441.405 265.053 448.069 261.243 448.529 259.793C449.401 257.045 449.451 3.35792 448.58 1.94792C447.463 0.140916 446.079 0.575927 433.514 6.67793ZM539.849 96.7499C545.165 99.4509 556.504 105.046 565.048 109.183C573.592 113.321 581.467 117.684 582.548 118.879C584.492 121.026 584.517 124.307 584.781 406.068C584.927 562.828 585.291 691.48 585.59 691.963C586.485 693.412 589.591 692.959 592.129 691.008C593.441 689.999 597.889 687.766 602.014 686.044C609.268 683.017 629.484 672.943 658.514 657.889C674.514 649.593 681.613 646.012 695.014 639.478C700.239 636.93 708.114 632.802 712.514 630.304C716.914 627.806 726.589 622.818 734.014 619.22C752.678 610.177 775.338 598.708 782.514 594.673C785.814 592.817 791.664 589.82 795.514 588.013C799.364 586.205 803.189 584.37 804.014 583.936C808.265 581.694 808.153 586.949 807.826 405.675C807.654 310.709 807.837 232.686 808.232 232.29C809.026 231.496 814.663 233.482 817.014 235.384C819.094 237.067 834.987 245.195 850.554 252.537C859.266 256.647 864.001 259.46 864.821 261.014C865.78 262.833 865.99 302.432 865.781 442.31L865.514 621.279L852.514 628.103C841.043 634.124 827.914 640.632 806.014 651.152C802.439 652.869 792.764 658.057 784.514 662.68C776.264 667.303 760.064 675.735 748.514 681.418C736.964 687.101 720.764 695.349 712.514 699.747C684.069 714.911 621.495 745.689 613.961 748.222C594.371 754.809 571.048 754.115 556.338 746.508C548.534 742.473 538.512 731.081 533.011 719.994C526.739 707.353 527.014 722.349 527.014 392.855C527.014 99.0589 527.081 91.8409 529.799 91.8409C530.012 91.8409 534.534 94.0499 539.849 96.7499ZM912.341 719.14C910.786 720.404 902.764 724.547 894.514 728.347C886.264 732.146 875.689 737.404 871.014 740.032C866.339 742.66 855.989 748.036 848.014 751.979C805.556 772.972 799.898 775.875 793.514 779.939C791.314 781.339 780.964 786.792 770.514 792.055C760.064 797.319 740.489 807.244 727.014 814.111C686.063 834.981 663.983 846.12 654.014 850.937C648.789 853.462 636.414 859.69 626.514 864.778C616.614 869.866 600.639 878.076 591.014 883.023C571.101 893.258 551.275 903.24 529.514 913.989C497.16 929.969 474.452 941.998 473.167 943.838C472.115 945.344 471.82 952.005 471.82 974.334C471.82 1002.48 472.174 1005.84 475.134 1005.84C475.615 1005.84 480.107 1003.57 485.115 1000.78C490.123 998.004 494.962 995.323 495.867 994.826C496.773 994.329 503.814 990.889 511.514 987.18C519.214 983.472 528.214 978.878 531.514 976.971C534.814 975.064 542.914 970.743 549.514 967.37C556.114 963.996 562.414 960.714 563.514 960.076C564.614 959.438 583.289 950.111 605.014 939.35C626.739 928.588 656.439 913.684 671.014 906.23C685.589 898.775 704.039 889.353 712.014 885.291C719.989 881.229 729.439 876.346 733.014 874.441C736.589 872.535 746.786 867.377 755.674 862.978C764.562 858.579 773.562 853.889 775.674 852.556C777.786 851.224 811.304 834.315 850.159 814.982C889.014 795.648 921.076 779.121 921.409 778.254C921.742 777.387 922.014 763.68 922.014 747.794C922.014 720.262 921.924 718.863 920.08 717.876C917.178 716.323 915.459 716.604 912.341 719.14Z" fill="#CE1141"/>
</svg>



